<?xml version="1.0" encoding="UTF-8"?>
<svg id="Layer_2" data-name="Layer 2" xmlns="http://www.w3.org/2000/svg" viewBox="0 0 293.59 71.55">
  <defs>
    <style>
      .cls-1 {
        fill: #fff;
      }

      .cls-1, .cls-2 {
        stroke-width: 0px;
      }

      .cls-2 {
        fill: #6dc5ac;
      }
    </style>
  </defs>
  <g id="LOGO">
    <g>
      <g>
        <path class="cls-1" d="M208.48.76h23.63c1.41,0,2.56,1.15,2.56,2.56h0c0,1.41-1.15,2.56-2.56,2.56h-26.19v-2.56c0-1.41,1.15-2.56,2.56-2.56Z"/>
        <path class="cls-1" d="M208.48,19.45h8.72c1.41,0,2.56,1.15,2.56,2.56h0c0,1.41-1.15,2.56-2.56,2.56h-11.29v-2.56c0-1.41,1.15-2.56,2.56-2.56Z"/>
        <path class="cls-2" d="M217.92,38.15h14.19c1.41,0,2.56,1.15,2.56,2.56v2.56h-16.75c-1.41,0-2.56-1.15-2.56-2.56h0c0-1.41,1.15-2.56,2.56-2.56Z"/>
      </g>
      <path class="cls-1" d="M70.06,32.91c0,.16-.24,9.75-.24,9.75l-30.67.02c-.58,0-.74-.2-.74-.55s.2-.5.56-.5c.68,0,.1,0,1.49,0,1.05,0,1.67-.3,1.9-.66.22-.36.33-1.31.33-2.84V5.23c0-2.14-.38-2.39-.63-2.71s-.7-.7-1.87-.7c-.57,0-.3-.02-1.03-.02-.64,0-.77-.17-.77-.51,0-.41.17-.51.91-.51h28.78s.84,9.97.84,10.29c0,.4-.18.6-.54.6-.44,0-.76-.5-.96-1.51-.76-3.63-2.01-5.94-3.73-6.9-.79-.45-2.37-1.12-4.75-1.16-1.46-.02-10.3,0-10.3,0v17.76h6c2.15,0,2.68-.34,3.66-1.02.98-.68,1.65-2.67,2.02-5.96.08-.84.3-1.26.66-1.26.44,0,.66.36.66,1.08v16.25c0,.52-.22.78-.66.78-.28,0-.47-.17-.57-.51-.1-.34-.27-1.45-.51-3.34-.32-2.37-1.3-3.83-2.94-4.39-.72-.24-1.56-.36-2.44-.36h-5.88v20.16c4.74,0,8.42,0,11.06,0,2.34,0,3.76-.37,4.47-.53,2.65-.59,4.15-3.13,4.51-7.61.08-.99.34-1.49.78-1.49.4,0,.6.42.6,1.26Z"/>
      <path class="cls-2" d="M292.83,41.68c-1,0-1.28-.02-1.91-.02-.7,0-.93-.37-1.13-.59-.2-.32-.43-.5-.43-3.48V5.29c.01-2.25.09-2.39.19-2.71.1-.32.55-.73,1.5-.73.34,0,1.54,0,2.06,0,.25,0,.49-.13.49-.49s-.12-.54-.96-.54h-13.03c-.68,0-.96.12-.96.54,0,.36.15.49.75.49.78,0,1.52,0,2.06,0,.79,0,1.27.47,1.46.7.32.38.48.58.48,2.71v32.94c0,2.52-.08,2.53-.24,2.79-.16.26-.73.67-1.72.67h-2.17c-.43,0-.63.24-.63.5,0,.33.11.55.89.56.52,0,13.41,0,13.41,0,.46,0,.64-.19.64-.55,0-.4-.22-.49-.76-.49Z"/>
      <path class="cls-1" d="M38.7,29.88c0,.3-.48.45-1.44.45-3.03,0-3.36.32-3.61.96-.16.44-.24,2.17-.24,5.2v1.91c-2.08,1.75-4.07,2.99-5.95,3.71-1.88.72-4.15,1.08-6.79,1.08-6.33,0-11.36-1.89-15.08-5.68C1.86,33.73,0,28.6,0,22.11S1.82,10.23,5.47,6.18C9.11,2.14,13.92.11,19.89.11c2.6,0,5.45.72,8.53,2.16.92.44,1.68.66,2.28.66.76,0,1.26-.48,1.5-1.44.2-.56.44-.84.72-.84.32,0,.48.18.48.54,0,.04-.4,12.28-.48,12.68-.08.4-.3.6-.66.6s-.56-.28-.6-.84c-.2-3.86-1.32-6.91-3.36-9.15-2.04-2.23-4.73-3.35-8.05-3.35-4.17,0-7.46,1.86-9.88,5.58-2.42,3.72-3.64,8.79-3.64,15.22s1.23,11.16,3.7,14.8c2.46,3.64,5.8,5.45,10.01,5.45,3.2,0,5.41-.93,6.61-2.78.6-.93.9-2.6.9-5.01,0-2.01-.19-3.2-.57-3.56-.38-.36-1.69-.52-3.94-.48-.56,0-.92-.03-1.08-.08-.16-.05-.24-.17-.24-.35,0-.39.44-.59,1.32-.59h14.06c.8,0,1.2.19,1.2.57Z"/>
      <path class="cls-1" d="M134.22,30.89c0,3.45-1.31,6.38-3.94,8.8-2.62,2.42-5.78,3.64-9.46,3.64-2.16,0-4.75-.66-7.75-1.98-.8-.36-1.4-.54-1.8-.54-.48,0-.78.55-.9,1.66-.04.57-.3.86-.78.86-.4,0-.6-.24-.6-.72,0-.32.36-11.44.36-11.84,0-.6.24-.9.72-.9.4,0,.68.49.84,1.46,1.04,7.2,4.43,10.8,10.16,10.8,2.44,0,4.34-.69,5.68-2.07,1.34-1.38,2.01-3.34,2.01-5.86,0-2.24-.65-4.16-1.95-5.74-1.3-1.58-3.54-3.15-6.7-4.72-3.81-1.88-6.45-3.7-7.93-5.47-1.48-1.76-2.22-3.95-2.22-6.55,0-3.32,1.07-6.07,3.22-8.23,2.14-2.16,4.86-3.24,8.14-3.24,1.36,0,3.24.46,5.65,1.38.84.32,1.46.48,1.86.48.44,0,.73-.08.87-.24.14-.16.27-.58.39-1.26.08-.4.3-.6.66-.6.4,0,.6.24.6.72,0,.32.12,9.73.12,9.73.04.44-.14.66-.54.66-.44,0-.74-.46-.9-1.38-.44-2.36-1.48-4.34-3.12-5.92-1.64-1.58-3.49-2.37-5.53-2.37s-3.6.64-4.78,1.92c-1.18,1.28-1.77,3.03-1.77,5.23,0,2.56.86,4.63,2.58,6.19.96.88,3.04,2.12,6.25,3.73,3.77,1.88,6.47,3.8,8.11,5.74,1.64,1.94,2.46,4.16,2.46,6.64Z"/>
      <path class="cls-1" d="M201.06,10.88c0,.56-.2.84-.6.84s-.68-.51-.84-1.52c-.48-2.92-1.46-5.05-2.94-6.39-.96-.85-2.43-1.66-4.45-1.73-.7-.03-11.42,0-11.42,0v17.87h6.52c1.41,0,2.58-.76,2.98-.99,1.2-.7,1.92-2.67,2.16-5.92.08-.92.32-1.38.72-1.38s.6.3.6.9v16.52c0,.48-.2.72-.6.72-.32,0-.52-.12-.6-.36-.08-.24-.22-1.16-.42-2.76-.32-2.44-.95-3.97-1.88-4.57-.94-.6-2.8-.78-5.59-.78h-3.89v17.91c0,1.16.46,1.9,1.37,2.22.44.16,1.41.22,2.91.18.63,0,.95.16.95.48,0,.36-.4.54-1.2.54h-13.7c-.76,0-1.14-.16-1.14-.48s.69-.52,2.07-.6c1.38-.08,2.19-.27,2.43-.57.24-.3.36-1.24.36-2.8V3.61c-.04-.72-.25-1.17-.64-1.36-.38-.18-1.43-.29-3.13-.33-.65,0-.97-.2-.97-.6,0-.36.36-.54,1.08-.54h28.9s.96,9.7.96,10.1Z"/>
      <path class="cls-1" d="M109.46.77h-10.76c-.68,0-.96.12-.96.54,0,.36.15.49.75.49.75,0,2.32,0,2.91,0,.01,0,.02,0,.03,0,1.07,0,1.93.85,1.97,1.9,0,0,0,0,0,0v.06s0,0,0,.01,0,0,0,.01v28.01L82.62.7s.01,0,.01,0h-10.41c-.68,0-.96.12-.96.54,0,.36.15.49.75.49.75,0,1.56,0,1.58,0,2.74,0,4.7,2.06,4.7,6.8,0,9.83,0,31.05,0,31.07,0,1.09-1.03,1.97-2.12,1.97,0,0,0,0,0,0,0,0,0,0-.01,0-.85,0-2.56,0-2.98,0-.25,0-.49.13-.49.49s.12.54.96.54h10.76c.68,0,.96-.12.96-.54,0-.36-.15-.49-.75-.49-.75,0-2.32,0-2.91,0-.01,0-.02,0-.03,0-1.07,0-1.78-.85-1.82-1.9,0,0,0-21.91,0-32.87h0s23.21,34.66,23.21,34.66l1.03,1.54c.22.32.72.17.72-.22v-1.64s.08-31.33.15-37.28c0-.03,0-.05,0-.08,0-1.09.88-1.97,1.97-1.97,0,0,0,0,0,0,0,0,0,0,.01,0,.85,0,2.56,0,2.98,0,.25,0,.49-.13.49-.49s-.12-.54-.96-.54Z"/>
      <path class="cls-1" d="M172.31,41.64c-1.56-.04-2.6-.19-3.1-.43-.5-.25-.91-.82-1.23-1.73-5.73-15.62-9.31-25.38-10.76-29.26-1.84-4.97-3.02-8.23-3.54-9.79-.08-.24-.18-.36-.3-.36-.2,0-.36.22-.48.66,0,0-8.25,23.53-13.4,38.33-.32.97-.76,1.62-1.32,1.96-.56.34-1.47.53-2.73.57-1.26.04-1.89.24-1.89.6s.28.54.84.54h10.94c1.04,0,1.56-.2,1.56-.6,0-.36-.58-.56-1.74-.6-1.88-.12-2.88-.2-3-.24-.48-.12-.72-.46-.72-1.02,0-.96,1.2-4.65,3.6-11.06h12.85c1.06,3.21,2.48,7.65,3.11,9.64.03.11.07.2.09.29,0,.02,0,.03,0,.05.04.14.06.28.06.43,0,.83-.62,1.5-1.42,1.6-.83.12-2,.18-3.58.19-1.08,0-1.62.23-1.62.69,0,.42.4.63,1.2.63h17.25c.6,0,.9-.17.9-.51s-.52-.53-1.56-.57ZM145.38,27.82c2.35-7.08,4.36-12.84,6.04-17.26l2.89,8.33c1.51,4.16,2.58,7.14,3.23,8.94h-12.16Z"/>
      <path class="cls-2" d="M278.27,41.64c-1.56-.04-2.6-.19-3.1-.43-.5-.25-.91-.82-1.23-1.73-5.73-15.62-9.31-25.38-10.76-29.26-1.84-4.97-3.02-8.23-3.54-9.79-.08-.24-.18-.36-.3-.36-.2,0-.36.22-.48.66,0,0-8.25,23.53-13.4,38.33-.32.97-.76,1.62-1.32,1.96-.56.34-1.47.53-2.73.57-1.26.04-1.89.24-1.89.6s.28.54.84.54h10.94c1.04,0,1.56-.2,1.56-.6,0-.36-.58-.56-1.74-.6-1.88-.12-2.88-.2-3-.24-.48-.12-.72-.46-.72-1.02,0-.96,1.2-4.65,3.6-11.06h12.85c1.06,3.21,2.48,7.65,3.11,9.64.03.11.07.2.09.29,0,.02,0,.03,0,.05.04.14.06.28.06.43,0,.83-.62,1.5-1.42,1.6-.83.12-2,.18-3.58.19-1.08,0-1.62.23-1.62.69,0,.42.4.63,1.2.63h17.25c.6,0,.9-.17.9-.51s-.52-.53-1.56-.57ZM251.33,27.82c2.35-7.08,4.36-12.84,6.04-17.26l2.89,8.33c1.51,4.16,2.58,7.14,3.23,8.94h-12.16Z"/>
      <g>
        <path class="cls-1" d="M218.89,68.58c-.29.57-.7,1.05-1.23,1.44-.53.39-1.16.7-1.9.92-.74.22-1.57.32-2.48.32h-7.32v-16.89h6.96c.82,0,1.57.1,2.24.29.67.19,1.25.47,1.72.83.47.36.84.8,1.11,1.32.26.52.4,1.09.4,1.72v.05c0,.58-.08,1.09-.25,1.52-.17.43-.39.81-.66,1.14-.27.32-.58.59-.93.81s-.69.4-1.02.54c.5.13.98.3,1.45.52.47.22.87.49,1.22.82.35.33.62.71.83,1.16.21.44.31.95.31,1.53v.05c0,.71-.14,1.34-.43,1.91ZM217.13,58.64c0-.94-.36-1.7-1.09-2.27-.72-.58-1.77-.86-3.14-.86h-5.69v6.68h5.57c.63,0,1.21-.08,1.74-.23s.99-.38,1.38-.67c.39-.29.69-.66.91-1.09.22-.44.33-.94.33-1.51v-.05ZM218.07,66.62c0-1.05-.44-1.86-1.32-2.43s-2.15-.86-3.82-.86h-5.72v6.8h6.13c1.45,0,2.6-.31,3.45-.93.85-.62,1.28-1.46,1.28-2.53v-.05Z"/>
        <path class="cls-1" d="M238.86,66.13c-.41,1.05-.99,1.98-1.72,2.79-.74.8-1.64,1.44-2.69,1.92-1.05.47-2.22.71-3.49.71s-2.45-.24-3.49-.71-1.93-1.11-2.67-1.91c-.74-.8-1.31-1.72-1.71-2.76-.4-1.05-.6-2.15-.6-3.31v-.05c0-1.16.2-2.26.62-3.32.41-1.05.99-1.98,1.72-2.79.74-.8,1.63-1.44,2.68-1.92,1.05-.47,2.21-.71,3.5-.71s2.43.24,3.47.71c1.05.47,1.94,1.11,2.68,1.91s1.31,1.72,1.71,2.76c.4,1.05.6,2.15.6,3.31.02.02.02.03,0,.05,0,1.16-.2,2.26-.62,3.32ZM238.17,62.82c0-1.05-.18-2.03-.54-2.96-.36-.92-.86-1.73-1.5-2.41-.64-.68-1.4-1.23-2.28-1.63-.88-.4-1.85-.6-2.9-.6s-2.01.2-2.88.59c-.88.39-1.63.93-2.27,1.62-.64.68-1.13,1.48-1.48,2.4-.35.92-.53,1.9-.53,2.94v.05c0,1.05.18,2.03.54,2.96.36.93.86,1.73,1.5,2.41.63.68,1.4,1.23,2.28,1.63s1.85.6,2.9.6,2.01-.2,2.88-.59c.88-.39,1.63-.93,2.27-1.62.64-.68,1.13-1.48,1.48-2.4.35-.92.53-1.9.53-2.94v-.05Z"/>
        <path class="cls-1" d="M256.75,71.26l-2.15-4.73h-9.96l-2.15,4.73h-1.3l7.87-17.01h1.21l7.87,17.01h-1.38ZM249.63,55.63l-4.46,9.77h8.9l-4.44-9.77Z"/>
        <path class="cls-1" d="M273.71,71.26l-5.38-7h-5.53v7h-1.25v-16.89h7.09c.92,0,1.75.12,2.49.35.74.23,1.37.56,1.89.99.52.43.93.93,1.22,1.52.29.59.43,1.23.43,1.94v.05c0,.71-.12,1.34-.37,1.89-.25.55-.6,1.03-1.04,1.44-.44.4-.97.73-1.57.98-.6.25-1.26.42-1.97.52l5.57,7.21h-1.59ZM273.42,59.21c0-1.15-.42-2.05-1.27-2.71-.84-.66-2.04-.99-3.58-.99h-5.77v7.62h5.69c.71,0,1.36-.09,1.97-.27s1.12-.43,1.56-.76.78-.73,1.03-1.21c.25-.48.37-1.02.37-1.63v-.05Z"/>
        <path class="cls-1" d="M292.79,66.15c-.43,1.03-1.05,1.92-1.85,2.68s-1.75,1.35-2.85,1.79c-1.1.43-2.31.65-3.63.65h-5.62v-16.89h5.62c1.32,0,2.53.21,3.63.64,1.1.43,2.05,1.02,2.85,1.77.8.76,1.41,1.64,1.85,2.67.43,1.02.65,2.13.65,3.32v.05c0,1.19-.22,2.3-.65,3.33ZM292.14,62.82c0-1-.18-1.94-.54-2.83-.36-.89-.87-1.66-1.53-2.32-.66-.66-1.46-1.19-2.41-1.57-.95-.39-2.01-.58-3.18-.58h-4.37v14.62h4.37c1.17,0,2.24-.19,3.18-.57.95-.38,1.75-.9,2.41-1.55.66-.65,1.17-1.42,1.53-2.3.36-.88.54-1.83.54-2.84v-.05Z"/>
      </g>
      <g>
        <path class="cls-2" d="M171.88,71.48H8.67c-4.79,0-8.67-3.88-8.67-8.67h0c0-4.79,3.88-8.67,8.67-8.67h154.55c4.79,0,8.67,3.88,8.67,8.67v8.67Z"/>
        <g>
          <path class="cls-1" d="M8.63,62.55v-.02c0-2.07,1.52-3.9,3.78-3.9,1.27,0,2.06.37,2.81,1l-.55.65c-.58-.51-1.23-.86-2.29-.86-1.67,0-2.87,1.41-2.87,3.09v.02c0,1.8,1.15,3.14,2.98,3.14.86,0,1.66-.33,2.18-.75v-1.87h-2.29v-.77h3.11v3.01c-.7.62-1.76,1.15-3.03,1.15-2.37,0-3.84-1.72-3.84-3.88Z"/>
          <path class="cls-1" d="M16.81,63.53v-.02c0-1.61,1.13-2.9,2.67-2.9,1.65,0,2.6,1.31,2.6,2.94,0,.11,0,.17-.01.27h-4.42c.12,1.21.97,1.89,1.96,1.89.76,0,1.3-.31,1.76-.79l.52.46c-.56.63-1.24,1.05-2.29,1.05-1.53,0-2.78-1.17-2.78-2.9ZM21.24,63.21c-.09-1.01-.67-1.9-1.78-1.9-.97,0-1.7.81-1.81,1.9h3.59Z"/>
          <path class="cls-1" d="M23.43,60.73h.83v.97c.37-.6.95-1.09,1.91-1.09,1.35,0,2.13.91,2.13,2.23v3.46h-.83v-3.25c0-1.03-.56-1.68-1.54-1.68s-1.67.7-1.67,1.75v3.19h-.83v-5.57Z"/>
          <path class="cls-1" d="M29.61,63.53v-.02c0-1.61,1.13-2.9,2.67-2.9,1.65,0,2.6,1.31,2.6,2.94,0,.11,0,.17-.01.27h-4.42c.12,1.21.97,1.89,1.96,1.89.77,0,1.3-.31,1.76-.79l.52.46c-.56.63-1.24,1.05-2.29,1.05-1.53,0-2.78-1.17-2.78-2.9ZM34.04,63.21c-.09-1.01-.67-1.9-1.78-1.9-.97,0-1.7.81-1.81,1.9h3.59Z"/>
          <path class="cls-1" d="M36.22,60.73h.83v1.45c.41-.93,1.22-1.59,2.27-1.55v.89h-.06c-1.22,0-2.21.87-2.21,2.55v2.22h-.83v-5.57Z"/>
          <path class="cls-1" d="M39.79,64.68v-.02c0-1.17.97-1.8,2.38-1.8.71,0,1.22.1,1.71.24v-.19c0-1-.61-1.52-1.66-1.52-.66,0-1.17.17-1.69.41l-.25-.68c.61-.28,1.22-.46,2.03-.46s1.39.2,1.8.61c.38.38.57.92.57,1.63v3.4h-.8v-.84c-.39.51-1.03.96-2.01.96-1.03,0-2.08-.59-2.08-1.73ZM43.89,64.25v-.54c-.41-.12-.96-.24-1.64-.24-1.05,0-1.63.45-1.63,1.15v.02c0,.7.65,1.11,1.4,1.11,1.02,0,1.86-.62,1.86-1.51Z"/>
          <path class="cls-1" d="M46.57,64.82v-3.36h-.78v-.73h.78v-1.68h.83v1.68h1.77v.73h-1.77v3.25c0,.68.38.93.94.93.28,0,.52-.05.81-.19v.71c-.29.15-.6.24-1,.24-.89,0-1.57-.44-1.57-1.57Z"/>
          <path class="cls-1" d="M50.55,58.6h.95v.92h-.95v-.92ZM50.6,60.73h.83v5.57h-.83v-5.57Z"/>
          <path class="cls-1" d="M52.7,60.73h.92l1.87,4.62,1.89-4.62h.89l-2.42,5.61h-.73l-2.41-5.61Z"/>
          <path class="cls-1" d="M58.8,63.53v-.02c0-1.61,1.13-2.9,2.67-2.9,1.65,0,2.6,1.31,2.6,2.94,0,.11,0,.17-.01.27h-4.42c.12,1.21.97,1.89,1.96,1.89.77,0,1.3-.31,1.76-.79l.52.46c-.56.63-1.24,1.05-2.29,1.05-1.53,0-2.78-1.17-2.78-2.9ZM63.23,63.21c-.09-1.01-.67-1.9-1.78-1.9-.97,0-1.7.81-1.81,1.9h3.59Z"/>
          <path class="cls-1" d="M71.47,58.7h.8l3.44,7.6h-.92l-.88-1.99h-4.11l-.89,1.99h-.87l3.44-7.6ZM73.57,63.53l-1.71-3.84-1.72,3.84h3.44Z"/>
          <path class="cls-1" d="M77.15,58.76h.85v7.54h-.85v-7.54Z"/>
          <path class="cls-1" d="M82.62,65.59l.42-.59c.6.45,1.27.71,1.93.71s1.15-.34,1.15-.88v-.02c0-.56-.66-.78-1.39-.98-.87-.25-1.84-.55-1.84-1.57v-.02c0-.96.8-1.59,1.9-1.59.68,0,1.43.24,2,.61l-.38.63c-.52-.33-1.11-.54-1.65-.54-.66,0-1.08.34-1.08.81v.02c0,.53.69.73,1.43.96.86.26,1.79.59,1.79,1.59v.02c0,1.06-.87,1.67-1.98,1.67-.8,0-1.68-.31-2.31-.82Z"/>
          <path class="cls-1" d="M87.92,64.68v-.02c0-1.17.97-1.8,2.38-1.8.71,0,1.22.1,1.71.24v-.19c0-1-.61-1.52-1.66-1.52-.66,0-1.17.17-1.69.41l-.25-.68c.61-.28,1.22-.46,2.03-.46s1.39.2,1.8.61c.38.38.57.92.57,1.63v3.4h-.8v-.84c-.39.51-1.03.96-2.01.96-1.03,0-2.08-.59-2.08-1.73ZM92.03,64.25v-.54c-.41-.12-.96-.24-1.64-.24-1.05,0-1.63.45-1.63,1.15v.02c0,.7.65,1.11,1.4,1.11,1.02,0,1.86-.62,1.86-1.51Z"/>
          <path class="cls-1" d="M94.78,61.46h-.77v-.72h.77v-.48c0-.64.17-1.12.48-1.43.28-.28.69-.43,1.2-.43.39,0,.65.04.92.14v.72c-.3-.09-.53-.14-.81-.14-.65,0-.97.39-.97,1.18v.45h1.77v.71h-1.76v4.84h-.83v-4.84Z"/>
          <path class="cls-1" d="M97.86,63.53v-.02c0-1.61,1.13-2.9,2.67-2.9,1.65,0,2.6,1.31,2.6,2.94,0,.11,0,.17-.01.27h-4.42c.12,1.21.97,1.89,1.96,1.89.76,0,1.3-.31,1.76-.79l.52.46c-.56.63-1.24,1.05-2.29,1.05-1.53,0-2.78-1.17-2.78-2.9ZM102.29,63.21c-.09-1.01-.67-1.9-1.78-1.9-.97,0-1.7.81-1.81,1.9h3.59Z"/>
          <path class="cls-1" d="M104.55,58.43h.83v7.86h-.83v-7.86Z"/>
          <path class="cls-1" d="M111.37,60.73h.88l-2.34,5.75c-.47,1.15-1.01,1.57-1.85,1.57-.46,0-.81-.1-1.19-.28l.28-.66c.27.14.52.2.87.2.5,0,.81-.26,1.14-1.04l-2.53-5.55h.92l2.03,4.64,1.79-4.64Z"/>
          <path class="cls-1" d="M116.26,63.53v-.02c0-1.82,1.33-2.9,2.66-2.9,1.03,0,1.7.56,2.13,1.19v-3.36h.83v7.86h-.83v-1.12c-.45.67-1.11,1.24-2.13,1.24-1.34,0-2.66-1.06-2.66-2.89ZM121.08,63.52v-.02c0-1.28-.98-2.14-2.01-2.14s-1.96.8-1.96,2.14v.02c0,1.31.92,2.15,1.96,2.15s2.01-.87,2.01-2.15Z"/>
          <path class="cls-1" d="M123.28,63.53v-.02c0-1.61,1.13-2.9,2.67-2.9,1.65,0,2.6,1.31,2.6,2.94,0,.11,0,.17-.01.27h-4.42c.12,1.21.97,1.89,1.96,1.89.76,0,1.3-.31,1.76-.79l.52.46c-.56.63-1.24,1.05-2.29,1.05-1.53,0-2.78-1.17-2.78-2.9ZM127.71,63.21c-.09-1.01-.67-1.9-1.78-1.9-.97,0-1.7.81-1.81,1.9h3.59Z"/>
          <path class="cls-1" d="M129.97,58.43h.83v7.86h-.83v-7.86Z"/>
          <path class="cls-1" d="M132.64,58.6h.95v.92h-.95v-.92ZM132.69,60.73h.83v5.57h-.83v-5.57Z"/>
          <path class="cls-1" d="M134.79,60.73h.92l1.87,4.62,1.89-4.62h.89l-2.42,5.61h-.73l-2.41-5.61Z"/>
          <path class="cls-1" d="M140.89,63.53v-.02c0-1.61,1.13-2.9,2.67-2.9,1.65,0,2.6,1.31,2.6,2.94,0,.11,0,.17-.01.27h-4.42c.12,1.21.97,1.89,1.96,1.89.76,0,1.3-.31,1.76-.79l.52.46c-.56.63-1.24,1.05-2.29,1.05-1.53,0-2.78-1.17-2.78-2.9ZM145.32,63.21c-.09-1.01-.67-1.9-1.78-1.9-.97,0-1.7.81-1.81,1.9h3.59Z"/>
          <path class="cls-1" d="M147.5,60.73h.83v1.45c.41-.93,1.22-1.59,2.27-1.55v.89h-.06c-1.22,0-2.21.87-2.21,2.55v2.22h-.83v-5.57Z"/>
          <path class="cls-1" d="M151.18,63.53v-.02c0-1.61,1.13-2.9,2.67-2.9,1.65,0,2.6,1.31,2.6,2.94,0,.11,0,.17-.01.27h-4.42c.12,1.21.97,1.89,1.96,1.89.77,0,1.3-.31,1.76-.79l.52.46c-.56.63-1.24,1.05-2.29,1.05-1.53,0-2.78-1.17-2.78-2.9ZM155.6,63.21c-.09-1.01-.67-1.9-1.78-1.9-.97,0-1.7.81-1.81,1.9h3.59Z"/>
          <path class="cls-1" d="M157.47,63.53v-.02c0-1.82,1.33-2.9,2.66-2.9,1.03,0,1.7.56,2.13,1.19v-3.36h.83v7.86h-.83v-1.12c-.45.67-1.11,1.24-2.13,1.24-1.34,0-2.66-1.06-2.66-2.89ZM162.29,63.52v-.02c0-1.28-.98-2.14-2.01-2.14s-1.96.8-1.96,2.14v.02c0,1.31.92,2.15,1.96,2.15s2.01-.87,2.01-2.15Z"/>
        </g>
      </g>
    </g>
  </g>
</svg>