<?xml version="1.0" encoding="UTF-8"?>
<svg id="Layer_2" data-name="Layer 2" xmlns="http://www.w3.org/2000/svg" viewBox="0 0 39.01 57.68">
  <defs>
    <style>
      .cls-1 {
        fill: #6dc5ac;
      }

      .cls-1, .cls-2 {
        stroke-width: 0px;
      }

      .cls-2 {
        fill: #fff;
      }
    </style>
  </defs>
  <g id="Chat">
    <g>
      <path class="cls-2" d="M3.48,0h32.05C37.45,0,39.01,1.56,39.01,3.48h0c0,1.92-1.56,3.48-3.48,3.48H0v-3.48C0,1.56,1.56,0,3.48,0Z"/>
      <path class="cls-2" d="M3.48,25.37h11.84c1.92,0,3.48,1.56,3.48,3.48h0c0,1.92-1.56,3.48-3.48,3.48H0v-3.48C0,26.92,1.56,25.37,3.48,25.37Z"/>
      <path class="cls-1" d="M16.28,50.73h19.25c1.92,0,3.48,1.56,3.48,3.48v3.48h-22.73c-1.92,0-3.48-1.56-3.48-3.48h0c0-1.92,1.56-3.48,3.48-3.48Z"/>
    </g>
  </g>
</svg>